  0
SECTION
  2
HEADER
  9
$ACADVER
  1
AC1009
  9
$INSBASE
 10
0.0
 20
0.0
 30
0.0
  9
$EXTMIN
 10
582.3869690213513195
 20
-114.553673928704697
 30
0.0
  9
$EXTMAX
 10
943.9008613489576192
 20
626.7371567965070653
 30
0.0
  9
$LIMMIN
 10
0.0
 20
0.0
  9
$LIMMAX
 10
420.0
 20
297.0
  9
$ORTHOMODE
 70
     1
  9
$REGENMODE
 70
     1
  9
$FILLMODE
 70
     1
  9
$QTEXTMODE
 70
     0
  9
$MIRRTEXT
 70
     1
  9
$DRAGMODE
 70
     2
  9
$LTSCALE
 40
1.0
  9
$OSMODE
 70
  4095
  9
$ATTMODE
 70
     1
  9
$TEXTSIZE
 40
2.5
  9
$TRACEWID
 40
1.0
  9
$TEXTSTYLE
  7
STANDARD
  9
$CLAYER
  8
0
  9
$CELTYPE
  6
BYLAYER
  9
$CECOLOR
 62
     3
  9
$DIMSCALE
 40
1.0
  9
$DIMASZ
 40
2.5
  9
$DIMEXO
 40
0.625
  9
$DIMDLI
 40
3.75
  9
$DIMRND
 40
0.0
  9
$DIMDLE
 40
0.0
  9
$DIMEXE
 40
1.25
  9
$DIMTP
 40
0.0
  9
$DIMTM
 40
0.0
  9
$DIMTXT
 40
2.5
  9
$DIMCEN
 40
2.5
  9
$DIMTSZ
 40
0.0
  9
$DIMTOL
 70
     0
  9
$DIMLIM
 70
     0
  9
$DIMTIH
 70
     0
  9
$DIMTOH
 70
     0
  9
$DIMSE1
 70
     0
  9
$DIMSE2
 70
     0
  9
$DIMTAD
 70
     1
  9
$DIMZIN
 70
     8
  9
$DIMBLK
  1

  9
$DIMASO
 70
     1
  9
$DIMSHO
 70
     1
  9
$DIMPOST
  1

  9
$DIMAPOST
  1

  9
$DIMALT
 70
     0
  9
$DIMALTD
 70
     3
  9
$DIMALTF
 40
0.03937007874
  9
$DIMLFAC
 40
1.0
  9
$DIMTOFL
 70
     1
  9
$DIMTVP
 40
0.0
  9
$DIMTIX
 70
     0
  9
$DIMSOXD
 70
     0
  9
$DIMSAH
 70
     0
  9
$DIMBLK1
  1

  9
$DIMBLK2
  1

  9
$DIMSTYLE
  2
STANDARD
  9
$DIMCLRD
 70
     0
  9
$DIMCLRE
 70
     0
  9
$DIMCLRT
 70
     0
  9
$DIMTFAC
 40
1.0
  9
$DIMGAP
 40
0.625
  9
$LUNITS
 70
     2
  9
$LUPREC
 70
     4
  9
$SKETCHINC
 40
1.0
  9
$FILLETRAD
 40
19.7035831373572705
  9
$AUNITS
 70
     0
  9
$AUPREC
 70
     2
  9
$MENU
  1
.
  9
$ELEVATION
 40
0.0
  9
$PELEVATION
 40
0.0
  9
$THICKNESS
 40
0.0
  9
$LIMCHECK
 70
     0
  9
$BLIPMODE
 70
     0
  9
$CHAMFERA
 40
0.0
  9
$CHAMFERB
 40
0.0
  9
$SKPOLY
 70
     0
  9
$TDCREATE
 40
2458532.2373263891786337
  9
$TDUPDATE
 40
2461170.477083332836628
  9
$TDINDWG
 40
0.0539930556
  9
$TDUSRTIMER
 40
0.0539930556
  9
$USRTIMER
 70
     1
  9
$ANGBASE
 50
0.0
  9
$ANGDIR
 70
     0
  9
$PDMODE
 70
     0
  9
$PDSIZE
 40
0.0
  9
$PLINEWID
 40
0.0
  9
$COORDS
 70
     1
  9
$SPLFRAME
 70
     0
  9
$SPLINETYPE
 70
     6
  9
$SPLINESEGS
 70
     8
  9
$ATTDIA
 70
     1
  9
$ATTREQ
 70
     1
  9
$HANDLING
 70
     1
  9
$HANDSEED
  5
105
  9
$SURFTAB1
 70
     6
  9
$SURFTAB2
 70
     6
  9
$SURFTYPE
 70
     6
  9
$SURFU
 70
     6
  9
$SURFV
 70
     6
  9
$UCSNAME
  2

  9
$UCSORG
 10
0.0
 20
0.0
 30
0.0
  9
$UCSXDIR
 10
1.0
 20
0.0
 30
0.0
  9
$UCSYDIR
 10
0.0
 20
1.0
 30
0.0
  9
$PUCSNAME
  2

  9
$PUCSORG
 10
0.0
 20
0.0
 30
0.0
  9
$PUCSXDIR
 10
1.0
 20
0.0
 30
0.0
  9
$PUCSYDIR
 10
0.0
 20
1.0
 30
0.0
  9
$USERI1
 70
     0
  9
$USERI2
 70
     0
  9
$USERI3
 70
     0
  9
$USERI4
 70
     0
  9
$USERI5
 70
     0
  9
$USERR1
 40
0.0
  9
$USERR2
 40
0.0
  9
$USERR3
 40
0.0
  9
$USERR4
 40
0.0
  9
$USERR5
 40
0.0
  9
$WORLDVIEW
 70
     1
  9
$SHADEDGE
 70
     3
  9
$SHADEDIF
 70
    70
  9
$TILEMODE
 70
     1
  9
$MAXACTVP
 70
    64
  9
$PLIMCHECK
 70
     0
  9
$PEXTMIN
 10
1.0000000000000000E+20
 20
1.0000000000000000E+20
 30
1.0000000000000000E+20
  9
$PEXTMAX
 10
-1.0000000000000000E+20
 20
-1.0000000000000000E+20
 30
-1.0000000000000000E+20
  9
$PLIMMIN
 10
0.0
 20
0.0
  9
$PLIMMAX
 10
420.0
 20
297.0
  9
$UNITMODE
 70
     0
  9
$VISRETAIN
 70
     1
  9
$PLINEGEN
 70
     0
  9
$PSLTSCALE
 70
     1
  0
ENDSEC
  0
SECTION
  2
TABLES
  0
TABLE
  2
VPORT
 70
     1
  0
VPORT
  2
*ACTIVE
 70
     0
 10
0.0
 20
0.0
 11
1.0
 21
1.0
 12
1402.9149205109169998
 22
-144.4634308290166871
 13
0.0
 23
0.0
 14
0.5
 24
0.5
 15
0.5
 25
0.5
 16
0.0
 26
0.0
 36
1.0
 17
0.0
 27
0.0
 37
0.0
 40
2671.8184865143311981
 41
2.3005050505050502
 42
50.0
 43
0.0
 44
0.0
 50
0.0
 51
0.0
 71
     0
 72
  1000
 73
     1
 74
     3
 75
     0
 76
     0
 77
     0
 78
     0
  0
ENDTAB
  0
TABLE
  2
LTYPE
 70
     1
  0
LTYPE
  2
CONTINUOUS
 70
     0
  3
Solid line
 72
    65
 73
     0
 40
0.0
  0
ENDTAB
  0
TABLE
  2
LAYER
 70
     1
  0
LAYER
  2
0
 70
     0
 62
     7
  6
CONTINUOUS
  0
ENDTAB
  0
TABLE
  2
STYLE
 70
     1
  0
STYLE
  2
STANDARD
 70
     0
 40
0.0
 41
1.0
 50
0.0
 71
     0
 42
2.5
  3
txt
  4

  0
ENDTAB
  0
TABLE
  2
VIEW
 70
     0
  0
ENDTAB
  0
TABLE
  2
UCS
 70
     0
  0
ENDTAB
  0
TABLE
  2
APPID
 70
     2
  0
APPID
  2
ACAD
 70
     0
  0
APPID
  2
ACAD_NAV_VCDISPLAY
 70
     0
  0
ENDTAB
  0
TABLE
  2
DIMSTYLE
 70
     1
  0
DIMSTYLE
  2
STANDARD
 70
     0
  3

  4

  5

  6

  7

 40
1.0
 41
2.5
 42
0.625
 43
3.75
 44
1.25
 45
0.0
 46
0.0
 47
0.0
 48
0.0
140
2.5
141
2.5
142
0.0
143
0.03937007874
144
1.0
145
0.0
146
1.0
147
0.625
 71
     0
 72
     0
 73
     0
 74
     0
 75
     0
 76
     0
 77
     1
 78
     8
170
     0
171
     3
172
     1
173
     0
174
     0
175
     0
176
     0
177
     0
178
     0
  0
ENDTAB
  0
ENDSEC
  0
SECTION
  2
BLOCKS
  0
BLOCK
  8
0
  2
$MODEL_SPACE
 70
     0
 10
0.0
 20
0.0
 30
0.0
  3
$MODEL_SPACE
  1

  0
ENDBLK
  5
14
  8
0
  0
BLOCK
 67
     1
  8
0
  2
$PAPER_SPACE
 70
     0
 10
0.0
 20
0.0
 30
0.0
  3
$PAPER_SPACE
  1

  0
ENDBLK
  5
19
 67
     1
  8
0
  0
ENDSEC
  0
SECTION
  2
ENTITIES
  0
LINE
  5
64
  8
0
 62
     3
 10
705.6683022645064511
 20
298.403096851263399
 30
0.0
 11
721.1683022645065648
 21
298.403096851263399
 31
0.0
  0
LINE
  5
65
  8
0
 62
     3
 10
721.1683022645065648
 20
298.403096851263399
 30
0.0
 11
721.1683022645065648
 21
278.403096851263399
 31
0.0
  0
LINE
  5
66
  8
0
 62
     3
 10
721.1683022645065648
 20
278.403096851263399
 30
0.0
 11
705.6683022645064511
 21
278.403096851263399
 31
0.0
  0
LINE
  5
67
  8
0
 62
     3
 10
705.6683022645064511
 20
278.403096851263399
 30
0.0
 11
705.6683022645064511
 21
298.403096851263399
 31
0.0
  0
LINE
  5
68
  8
0
 62
     3
 10
737.8960890863750137
 20
427.0838305039087004
 30
0.0
 11
766.0960890863749455
 21
427.0838305039087004
 31
0.0
  0
LINE
  5
69
  8
0
 62
     3
 10
766.0960890863749455
 20
427.0838305039087004
 30
0.0
 11
766.0960890863749455
 21
371.0838305039088141
 31
0.0
  0
LINE
  5
6A
  8
0
 62
     3
 10
766.0960890863749455
 20
371.0838305039088141
 30
0.0
 11
737.8960890863750137
 21
371.0838305039088141
 31
0.0
  0
LINE
  5
6B
  8
0
 62
     3
 10
737.8960890863750137
 20
371.0838305039088141
 30
0.0
 11
737.8960890863750137
 21
427.0838305039087004
 31
0.0
  0
LINE
  5
6C
  8
0
 62
     3
 10
676.0333055368679425
 20
383.9150032882657797
 30
0.0
 11
676.9215649474181191
 21
405.7533419338219005
 31
0.0
  0
LINE
  5
6D
  8
0
 62
     3
 10
676.9215649474181191
 20
405.7533419338219005
 30
0.0
 11
680.8041697352555275
 21
431.6863690754198046
 31
0.0
  0
LINE
  5
6E
  8
0
 62
     3
 10
680.8041697352555275
 20
431.6863690754198046
 30
0.0
 11
688.0989876385377784
 21
457.3919135227931747
 31
0.0
  0
LINE
  5
6F
  8
0
 62
     3
 10
688.0989876385377784
 20
457.3919135227931747
 30
0.0
 11
696.6828027886872405
 21
477.8653560030019207
 31
0.0
  0
LINE
  5
70
  8
0
 62
     3
 10
696.6828027886872405
 20
477.8653560030019207
 30
0.0
 11
707.804144626164998
 21
496.746419623639099
 31
0.0
  0
LINE
  5
71
  8
0
 62
     3
 10
707.804144626164998
 20
496.746419623639099
 30
0.0
 11
719.029412842429906
 21
510.1678985828871191
 31
0.0
  0
LINE
  5
72
  8
0
 62
     3
 10
719.029412842429906
 20
510.1678985828871191
 30
0.0
 11
729.0367732911861367
 21
518.648022116389825
 31
0.0
  0
LINE
  5
73
  8
0
 62
     3
 10
729.0367732911861367
 20
518.648022116389825
 30
0.0
 11
740.6383906966379982
 21
525.0015402891712029
 31
0.0
  0
LINE
  5
74
  8
0
 62
     3
 10
740.6383906966379982
 20
525.0015402891712029
 30
0.0
 11
753.3774215732123594
 21
528.4690367039314651
 31
0.0
  0
LINE
  5
75
  8
0
 62
     3
 10
753.3774215732123594
 20
528.4690367039314651
 30
0.0
 11
766.3439351440111977
 21
529.03986289575505
 31
0.0
  0
LINE
  5
76
  8
0
 62
     3
 10
766.3439351440111977
 20
529.03986289575505
 30
0.0
 11
779.3104487148101498
 21
526.5843341654217511
 31
0.0
  0
LINE
  5
77
  8
0
 62
     3
 10
779.3104487148101498
 20
526.5843341654217511
 30
0.0
 11
791.367031508710852
 21
521.2147132225311452
 31
0.0
  0
LINE
  5
78
  8
0
 62
     3
 10
791.367031508710852
 20
521.2147132225311452
 30
0.0
 11
801.8312354430398727
 21
513.273334906416153
 31
0.0
  0
LINE
  5
79
  8
0
 62
     3
 10
801.8312354430398727
 20
513.273334906416153
 30
0.0
 11
810.5327815317932618
 21
503.3434177561506999
 31
0.0
  0
LINE
  5
7A
  8
0
 62
     3
 10
810.5327815317932618
 20
503.3434177561506999
 30
0.0
 11
817.4722234678481527
 21
491.9692830449234862
 31
0.0
  0
LINE
  5
7B
  8
0
 62
     3
 10
817.4722234678481527
 20
491.9692830449234862
 30
0.0
 11
824.0487115331658288
 21
475.5905290607565234
 31
0.0
  0
LINE
  5
7C
  8
0
 62
     3
 10
824.0487115331658288
 20
475.5905290607565234
 30
0.0
 11
829.1022875842124904
 21
453.9796731094248798
 31
0.0
  0
LINE
  5
7D
  8
0
 62
     3
 10
829.1022875842124904
 20
453.9796731094248798
 30
0.0
 11
832.0845602274343946
 21
428.0466459678270894
 31
0.0
  0
LINE
  5
7E
  8
0
 62
     3
 10
832.0845602274343946
 20
428.0466459678270894
 30
0.0
 11
832.3139988178636486
 21
406.4357900164956732
 31
0.0
  0
LINE
  5
7F
  8
0
 62
     3
 10
832.3139988178636486
 20
406.4357900164956732
 30
0.0
 11
829.3840667578252805
 21
384.8249340651640864
 31
0.0
  0
LINE
  5
80
  8
0
 62
     3
 10
829.3840667578252805
 20
384.8249340651640864
 30
0.0
 11
824.2183956519244248
 21
367.7637319983232942
 31
0.0
  0
LINE
  5
81
  8
0
 62
     3
 10
824.2183956519244248
 20
367.7637319983232942
 30
0.0
 11
816.5157754372556838
 21
351.8399434026052859
 31
0.0
  0
LINE
  5
82
  8
0
 62
     3
 10
816.5157754372556838
 20
351.8399434026052859
 30
0.0
 11
803.478210376708148
 21
328.6367085917020177
 31
0.0
  0
LINE
  5
83
  8
0
 62
     3
 10
803.478210376708148
 20
328.6367085917020177
 30
0.0
 11
798.8030329064406487
 21
316.1251604093520768
 31
0.0
  0
LINE
  5
84
  8
0
 62
     3
 10
798.8030329064406487
 20
316.1251604093520768
 30
0.0
 11
796.4251706351212761
 21
303.1586468385531816
 31
0.0
  0
LINE
  5
85
  8
0
 62
     3
 10
796.4251706351212761
 20
303.1586468385531816
 30
0.0
 11
796.1358192450655906
 21
285.8699620774880259
 31
0.0
  0
LINE
  5
86
  8
0
 62
     3
 10
796.1358192450655906
 20
285.8699620774880259
 30
0.0
 11
799.927410709253536
 21
255.6147637456238044
 31
0.0
  0
LINE
  5
87
  8
0
 62
     3
 10
799.927410709253536
 20
255.6147637456238044
 30
0.0
 11
807.7413361588614862
 21
203.7487094624279962
 31
0.0
  0
LINE
  5
88
  8
0
 62
     3
 10
807.7413361588614862
 20
203.7487094624279962
 30
0.0
 11
809.3379277704480046
 21
182.1378535110964094
 31
0.0
  0
LINE
  5
89
  8
0
 62
     3
 10
809.3379277704480046
 20
182.1378535110964094
 30
0.0
 11
807.8758348468566055
 21
164.8491687500311969
 31
0.0
  0
LINE
  5
8A
  8
0
 62
     3
 10
807.8758348468566055
 20
164.8491687500311969
 30
0.0
 11
804.0675921044170309
 21
152.1101378734566083
 31
0.0
  0
LINE
  5
8B
  8
0
 62
     3
 10
804.0675921044170309
 20
152.1101378734566083
 30
0.0
 11
797.0991170070632279
 21
140.7360031622295935
 31
0.0
  0
LINE
  5
8C
  8
0
 62
     3
 10
797.0991170070632279
 20
140.7360031622295935
 30
0.0
 11
790.9120563385059768
 21
134.5500018805792024
 31
0.0
  0
LINE
  5
8D
  8
0
 62
     3
 10
790.9120563385059768
 20
134.5500018805792024
 30
0.0
 11
779.5379314090348544
 21
127.5761104202761942
 31
0.0
  0
LINE
  5
8E
  8
0
 62
     3
 10
779.5379314090348544
 20
127.5761104202761942
 30
0.0
 11
766.7989005324606069
 21
123.5731299800322063
 31
0.0
  0
LINE
  5
8F
  8
0
 62
     3
 10
766.7989005324606069
 20
123.5731299800322063
 30
0.0
 11
760.3156437470611309
 21
123.0552588021491971
 31
0.0
  0
LINE
  5
90
  8
0
 62
     3
 10
754.8156437470611309
 20
122.6159284512719978
 30
0.0
 11
753.8323869616615411
 21
122.5373876242662021
 31
0.0
  0
LINE
  5
91
  8
0
 62
     3
 10
753.8323869616615411
 20
122.5373876242662021
 30
0.0
 11
740.8658733908627028
 21
124.4288748341314061
 31
0.0
  0
LINE
  5
92
  8
0
 62
     3
 10
740.8658733908627028
 20
124.4288748341314061
 30
0.0
 11
732.4490137045545453
 21
127.5086815924330068
 31
0.0
  0
LINE
  5
93
  8
0
 62
     3
 10
732.4490137045545453
 20
127.5086815924330068
 30
0.0
 11
721.5298443817763427
 21
134.6781849665343032
 31
0.0
  0
LINE
  5
94
  8
0
 62
     3
 10
721.5298443817763427
 20
134.6781849665343032
 30
0.0
 11
712.7504255072054775
 21
144.8306916582714052
 31
0.0
  0
LINE
  5
95
  8
0
 62
     3
 10
712.7504255072054775
 20
144.8306916582714052
 30
0.0
 11
706.5584673637240485
 21
156.6597917579476018
 31
0.0
  0
LINE
  5
96
  8
0
 62
     3
 10
706.5584673637240485
 20
156.6597917579476018
 30
0.0
 11
701.4156700976927823
 21
173.7209938247883088
 31
0.0
  0
LINE
  5
97
  8
0
 62
     3
 10
701.4156700976927823
 20
173.7209938247883088
 30
0.0
 11
697.9521512178408784
 21
195.3318497761198103
 31
0.0
  0
LINE
  5
98
  8
0
 62
     3
 10
697.9521512178408784
 20
195.3318497761198103
 30
0.0
 11
695.5968654665094846
 21
234.2313904885166949
 31
0.0
  0
LINE
  5
99
  8
0
 62
     3
 10
695.5968654665094846
 20
234.2313904885166949
 30
0.0
 11
693.3304214890290496
 21
273.1309312009133805
 31
0.0
  0
LINE
  5
9A
  8
0
 62
     3
 10
693.3304214890290496
 20
273.1309312009133805
 30
0.0
 11
688.4050949488844253
 21
303.3861295327777157
 31
0.0
  0
LINE
  5
9B
  8
0
 62
     3
 10
688.4050949488844253
 20
303.3861295327777157
 30
0.0
 11
679.2010066035985574
 21
350.9300126257072066
 31
0.0
  0
LINE
  5
9C
  8
0
 62
     3
 10
679.2010066035985574
 20
350.9300126257072066
 30
0.0
 11
676.4794084270325811
 21
376.8630397673048833
 31
0.0
  0
LINE
  5
9D
  8
0
 62
     3
 10
676.4794084270325811
 20
376.8630397673048833
 30
0.0
 11
676.260788231092306
 21
383.687520594041473
 31
0.0
  0
LINE
  5
9E
  8
0
 62
     3
 10
766.0960890863749455
 20
427.0838305039087004
 30
0.0
 11
737.8960890863750137
 21
427.0838305039087004
 31
0.0
  0
LINE
  5
9F
  8
0
 62
     3
 10
737.8960890863750137
 20
427.0838305039087004
 30
0.0
 11
737.8960890863750137
 21
371.0838305039088141
 31
0.0
  0
LINE
  5
A0
  8
0
 62
     3
 10
737.8960890863750137
 20
371.0838305039088141
 30
0.0
 11
766.0960890863749455
 21
371.0838305039088141
 31
0.0
  0
LINE
  5
A1
  8
0
 62
     3
 10
766.0960890863749455
 20
371.0838305039088141
 30
0.0
 11
766.0960890863749455
 21
427.0838305039087004
 31
0.0
  0
POLYLINE
  5
A2
  8
0
 62
     3
 66
     1
 10
0.0
 20
0.0
 30
0.0
  0
VERTEX
  5
CE
  8
0
 62
     3
 10
760.3156437470611309
 20
140.7573492312876056
 30
0.0
  0
VERTEX
  5
CF
  8
0
 62
     3
 10
760.3156437470611309
 20
123.0552588021491971
 30
0.0
  0
SEQEND
  5
D0
  8
0
 62
     3
  0
POLYLINE
  5
A3
  8
0
 62
     3
 66
     1
 10
0.0
 20
0.0
 30
0.0
  0
VERTEX
  5
D1
  8
0
 62
     3
 10
754.8156437470611309
 20
140.7573492312876056
 30
0.0
  0
VERTEX
  5
D2
  8
0
 62
     3
 10
754.8156437470611309
 20
122.6159284512719978
 30
0.0
  0
SEQEND
  5
D3
  8
0
 62
     3
  0
POLYLINE
  5
A4
  8
0
 62
     3
 66
     1
 10
0.0
 20
0.0
 30
0.0
  0
VERTEX
  5
D4
  8
0
 62
     3
 10
754.8156437470611309
 20
140.7573492312876056
 30
0.0
  0
VERTEX
  5
D5
  8
0
 62
     3
 10
760.3156437470611309
 20
140.7573492312876056
 30
0.0
  0
SEQEND
  5
D6
  8
0
 62
     3
  0
POLYLINE
  5
A5
  8
0
 62
     3
 66
     1
 10
0.0
 20
0.0
 30
0.0
  0
VERTEX
  5
D7
  8
0
 62
     3
 10
803.3699040672923957
 20
118.7928978573741006
 30
0.0
  0
VERTEX
  5
D8
  8
0
 62
     3
 10
806.3385408353722141
 20
101.6799724668445037
 30
0.0
  0
SEQEND
  5
D9
  8
0
 62
     3
  0
POLYLINE
  5
A6
  8
0
 62
     3
 66
     1
 10
0.0
 20
0.0
 30
0.0
  0
VERTEX
  5
DA
  8
0
 62
     3
 10
797.7877616906968115
 20
118.7928978573741006
 30
0.0
  0
VERTEX
  5
DB
  8
0
 62
     3
 10
800.9194744699512967
 20
100.7399087843396046
 30
0.0
  0
SEQEND
  5
DC
  8
0
 62
     3
  0
POLYLINE
  5
A7
  8
0
 62
     3
 66
     1
 10
0.0
 20
0.0
 30
0.0
  0
VERTEX
  5
DD
  8
0
 62
     3
 10
806.3385408353722141
 20
101.6799724668445037
 30
0.0
  0
VERTEX
  5
DE
  8
0
 62
     3
 10
800.9194744699512967
 20
100.7399087843396046
 30
0.0
  0
SEQEND
  5
DF
  8
0
 62
     3
  0
POLYLINE
  5
A8
  8
0
 62
     3
 66
     1
 10
0.0
 20
0.0
 30
0.0
  0
VERTEX
  5
E0
  8
0
 62
     3
 10
690.6558366986953388
 20
79.385731582659588
 30
0.0
  0
VERTEX
  5
E1
  8
0
 62
     3
 10
721.5859161407527154
 20
79.385731582659588
 30
0.0
  0
SEQEND
  5
E2
  8
0
 62
     3
  0
POLYLINE
  5
A9
  8
0
 62
     3
 66
     1
 10
0.0
 20
0.0
 30
0.0
  0
VERTEX
  5
E3
  8
0
 62
     3
 10
785.5547865658437559
 20
79.385731582659588
 30
0.0
  0
VERTEX
  5
E4
  8
0
 62
     3
 10
816.4848660079012461
 20
79.385731582659588
 30
0.0
  0
SEQEND
  5
E5
  8
0
 62
     3
  0
POLYLINE
  5
AA
  8
0
 62
     3
 66
     1
 10
0.0
 20
0.0
 30
0.0
  0
VERTEX
  5
E6
  8
0
 62
     3
 10
816.4848660079012461
 20
79.385731582659588
 30
0.0
  0
VERTEX
  5
E7
  8
0
 62
     3
 10
816.4848660079012461
 20
113.1822359964593971
 30
0.0
 42
0.4142135623730951
  0
VERTEX
  5
E8
  8
0
 62
     3
 10
810.8742041469864716
 20
118.7928978573741006
 30
0.0
  0
VERTEX
  5
E9
  8
0
 62
     3
 10
803.3699040672923957
 20
118.7928978573741006
 30
0.0
  0
SEQEND
  5
EA
  8
0
 62
     3
  0
POLYLINE
  5
AB
  8
0
 62
     3
 66
     1
 10
0.0
 20
0.0
 30
0.0
  0
VERTEX
  5
EB
  8
0
 62
     3
 10
797.7877616906968115
 20
118.7928978573741006
 30
0.0
  0
VERTEX
  5
EC
  8
0
 62
     3
 10
710.3594198360525525
 20
118.7928978573741006
 30
0.0
 42
0.4142135623730959
  0
VERTEX
  5
ED
  8
0
 62
     3
 10
690.6558366986953388
 20
99.0893147200168585
 30
0.0
  0
VERTEX
  5
EE
  8
0
 62
     3
 10
690.6558366986953388
 20
79.385731582659588
 30
0.0
  0
SEQEND
  5
EF
  8
0
 62
     3
  0
POLYLINE
  5
AC
  8
0
 62
     3
 66
     1
 10
0.0
 20
0.0
 30
0.0
  0
VERTEX
  5
F0
  8
0
 62
     3
 10
721.5859161407527154
 20
79.385731582659588
 30
0.0
  0
VERTEX
  5
F1
  8
0
 62
     3
 10
721.5859161407527154
 20
73.3857315826595737
 30
0.0
  0
SEQEND
  5
F2
  8
0
 62
     3
  0
POLYLINE
  5
AD
  8
0
 62
     3
 66
     1
 10
0.0
 20
0.0
 30
0.0
  0
VERTEX
  5
F3
  8
0
 62
     3
 10
785.5547865658437559
 20
79.385731582659588
 30
0.0
  0
VERTEX
  5
F4
  8
0
 62
     3
 10
785.5547865658437559
 20
73.3857315826595737
 30
0.0
  0
SEQEND
  5
F5
  8
0
 62
     3
  0
POLYLINE
  5
AE
  8
0
 62
     3
 66
     1
 10
0.0
 20
0.0
 30
0.0
  0
VERTEX
  5
F6
  8
0
 62
     3
 10
721.5859161407527154
 20
73.3857315826595737
 30
0.0
  0
VERTEX
  5
F7
  8
0
 62
     3
 10
785.5547865658437559
 20
73.3857315826595737
 30
0.0
  0
SEQEND
  5
F8
  8
0
 62
     3
  0
CIRCLE
  5
AF
  8
0
 62
     3
 10
753.5703513532982925
 20
7.1103492934131856
 30
0.0
 40
63.1999695745516092
  0
POLYLINE
  5
B0
  8
0
 62
     3
 66
     1
 10
0.0
 20
0.0
 30
0.0
  0
VERTEX
  5
F9
  8
0
 62
     3
 10
721.5859161407527154
 20
10.3603492934131793
 30
0.0
  0
VERTEX
  5
FA
  8
0
 62
     3
 10
721.5859161407527154
 20
4.3603492934131856
 30
0.0
  0
SEQEND
  5
FB
  8
0
 62
     3
  0
POLYLINE
  5
B1
  8
0
 62
     3
 66
     1
 10
0.0
 20
0.0
 30
0.0
  0
VERTEX
  5
FC
  8
0
 62
     3
 10
785.5547865658437559
 20
10.3603492934131793
 30
0.0
  0
VERTEX
  5
FD
  8
0
 62
     3
 10
785.5547865658437559
 20
4.3603492934131856
 30
0.0
  0
SEQEND
  5
FE
  8
0
 62
     3
  0
POLYLINE
  5
B2
  8
0
 62
     3
 66
     1
 10
0.0
 20
0.0
 30
0.0
  0
VERTEX
  5
FF
  8
0
 62
     3
 10
785.5547865658437559
 20
4.3603492934131856
 30
0.0
  0
VERTEX
  5
100
  8
0
 62
     3
 10
721.5859161407527154
 20
4.3603492934131856
 30
0.0
  0
SEQEND
  5
101
  8
0
 62
     3
  0
POLYLINE
  5
B3
  8
0
 62
     3
 66
     1
 10
0.0
 20
0.0
 30
0.0
  0
VERTEX
  5
102
  8
0
 62
     3
 10
785.5547865658437559
 20
10.3603492934131793
 30
0.0
  0
VERTEX
  5
103
  8
0
 62
     3
 10
721.5859161407527154
 20
10.3603492934131793
 30
0.0
  0
SEQEND
  5
104
  8
0
 62
     3
  0
ENDSEC
  0
EOF
